<svg width="45" height="50" viewBox="0 0 45 50" fill="none" xmlns="http://www.w3.org/2000/svg">
<circle cx="22.2839" cy="8.10328" r="8.10328" fill="white"/>
<circle cx="34.4387" cy="41.8667" r="8.10328" fill="white"/>
<circle cx="38.4905" cy="24.3099" r="6.07746" fill="white"/>
<circle cx="6.07746" cy="24.3099" r="6.07746" fill="white"/>
<circle cx="22.284" cy="24.9849" r="6.07746" fill="white"/>
<circle cx="10.1296" cy="41.8667" r="8.10328" fill="white"/>
<path fill-rule="evenodd" clip-rule="evenodd" d="M26.1653 28.45C25.8953 28.3694 25.5925 28.418 25.3427 28.6078L23.1901 30.2435C22.9787 30.4041 22.8426 30.6371 22.7915 30.8874C23.4664 31.2045 24.585 32.4228 25.6321 34.0472C26.6703 35.6579 27.339 37.2036 27.3924 38.0066C27.6526 38.04 27.928 37.9593 28.148 37.7559L30.4699 35.6093C30.5261 35.5573 30.5757 35.5 30.6185 35.4387C29.9355 35.0312 28.8973 33.8699 27.9213 32.3558C26.9057 30.7802 26.2437 29.2669 26.1653 28.45Z" fill="white"/>
<path fill-rule="evenodd" clip-rule="evenodd" d="M17.1636 37.8933C16.8937 37.9737 16.5911 37.9251 16.3415 37.7354L14.1907 36.1011C13.9792 35.9404 13.8431 35.7073 13.7921 35.457C14.4667 35.1395 15.5843 33.9221 16.6306 32.2991C17.6683 30.6892 18.3366 29.1444 18.39 28.3417C18.6504 28.3082 18.926 28.3888 19.1462 28.5924L21.4662 30.7373C21.5225 30.7893 21.5721 30.8466 21.6149 30.908C20.9322 31.3151 19.8944 32.4759 18.9187 33.9896C17.9036 35.5643 17.242 37.0768 17.1636 37.8933Z" fill="white"/>
</svg>
