<svg width="69" height="8" viewBox="0 0 69 8" fill="none" xmlns="http://www.w3.org/2000/svg">
<path d="M4.27509 0.0480957C2.27509 0.0480957 0.654053 1.6691 0.654053 3.6691C0.654053 5.6691 2.27509 7.2901 4.27509 7.2901C6.27509 7.2901 7.89606 5.6691 7.89606 3.6691C7.89606 1.6691 6.27409 0.0480957 4.27509 0.0480957Z" fill="white"/>
<path d="M16.038 0.0480957C14.038 0.0480957 12.418 1.6691 12.418 3.6691C12.418 5.6691 14.039 7.2901 16.038 7.2901C18.037 7.2901 19.6589 5.6691 19.6589 3.6691C19.6589 1.6691 18.038 0.0480957 16.038 0.0480957Z" fill="white"/>
<path d="M27.8021 0.0480957C25.8021 0.0480957 24.1821 1.6691 24.1821 3.6691C24.1821 5.6691 25.8031 7.2901 27.8021 7.2901C29.8021 7.2901 31.4231 5.6691 31.4231 3.6691C31.4221 1.6691 29.8021 0.0480957 27.8021 0.0480957Z" fill="white"/>
<path d="M41.264 0.0480957C39.264 0.0480957 37.6431 1.6691 37.6431 3.6691C37.6431 5.6691 39.264 7.2901 41.264 7.2901C43.264 7.2901 44.8851 5.6691 44.8851 3.6691C44.8841 1.6691 43.263 0.0480957 41.264 0.0480957Z" fill="white"/>
<path d="M53.027 0.0480957C51.027 0.0480957 49.407 1.6691 49.407 3.6691C49.407 5.6691 51.028 7.2901 53.027 7.2901C55.027 7.2901 56.648 5.6691 56.648 3.6691C56.648 1.6691 55.027 0.0480957 53.027 0.0480957Z" fill="white"/>
<path d="M64.791 0.0480957C62.791 0.0480957 61.1699 1.6691 61.1699 3.6691C61.1699 5.6691 62.791 7.2901 64.791 7.2901C66.791 7.2901 68.4119 5.6691 68.4119 3.6691C68.4109 1.6691 66.79 0.0480957 64.791 0.0480957Z" fill="white"/>
</svg>
