<svg width="408" height="64" viewBox="0 0 408 64" fill="none" xmlns="http://www.w3.org/2000/svg">
<path opacity="0.125" d="M2.30371 37.7529C48.0557 37.0989 51.7397 31.1409 81.4877 34.1469C111.236 37.1529 138.403 46.5649 171.358 39.8629C204.313 33.1599 223.417 11.7319 245.054 20.8639C266.691 29.9959 265.944 42.9849 284.712 41.5279C303.481 40.0709 324.44 25.7999 339.271 25.6709C352.039 25.5599 340.353 38.5059 375.438 37.7289" stroke="white" stroke-width="0.2813" stroke-miterlimit="10"/>
<path opacity="0.25" d="M3.95801 38.9911C49.71 38.3381 52.162 26.35 81.91 29.356C111.658 32.362 139.214 49.8551 172.169 43.1521C205.124 36.4491 223.144 9.20107 244.781 18.3331C266.418 27.4651 259.027 44.9191 277.796 43.4621C296.564 42.0051 318.434 24.8851 335.327 25.1461C348.091 25.3431 344.924 43.0081 380.002 39.6941" stroke="white" stroke-width="0.3125" stroke-miterlimit="10"/>
<path opacity="0.375" d="M5.61182 40.229C51.3638 39.576 52.5838 21.558 82.3318 24.565C112.08 27.571 140.024 53.1439 172.979 46.4419C205.934 39.7389 222.871 6.67195 244.508 15.8039C266.145 24.9359 252.11 46.854 270.879 45.398C289.647 43.941 312.427 24.106 331.383 24.622C344.143 24.97 349.495 47.511 384.567 41.66" stroke="white" stroke-width="0.3438" stroke-miterlimit="10"/>
<path opacity="0.5" d="M7.26611 41.4659C53.0181 40.8129 53.0061 16.7659 82.7541 19.7719C112.502 22.7779 140.835 56.4319 173.79 49.7289C206.745 43.0259 222.598 4.13994 244.236 13.2719C265.873 22.4039 245.195 48.7869 263.963 47.3309C282.731 45.8739 306.422 23.3009 327.44 24.0949C340.195 24.5769 354.067 52.0109 389.133 43.6219" stroke="white" stroke-width="0.375" stroke-miterlimit="10"/>
<path opacity="0.625" d="M8.91992 42.704C54.6719 42.051 53.4279 11.975 83.1759 14.981C112.924 17.987 141.646 59.721 174.6 53.019C207.555 46.316 222.325 1.61098 243.962 10.743C265.599 19.875 238.277 50.723 257.046 49.266C275.814 47.809 300.416 22.476 323.495 23.571C336.247 24.176 358.636 56.514 393.696 45.588" stroke="white" stroke-width="0.4063" stroke-miterlimit="10"/>
<path opacity="0.75" d="M10.5737 43.9419C56.3257 43.2889 53.8497 7.18394 83.5977 10.1899C113.346 13.1959 142.456 63.0099 175.411 56.3079C208.366 49.6059 222.053 -0.919052 243.69 8.21295C265.327 17.3449 231.362 52.6579 250.13 51.2009C268.899 49.7439 294.414 21.6289 319.552 23.0459C332.302 23.7649 363.208 61.0159 398.262 47.5529" stroke="white" stroke-width="0.4375" stroke-miterlimit="10"/>
<path opacity="0.875" d="M12.228 45.18C57.98 44.527 54.273 2.39295 84.02 5.39895C113.768 8.40495 143.267 66.3 176.222 59.597C209.177 52.894 221.78 -3.45003 243.417 5.68197C265.054 14.814 224.445 54.592 243.214 53.135C261.982 51.678 288.413 20.758 315.609 22.521C328.357 23.347 367.78 65.518 402.827 49.518" stroke="white" stroke-width="0.4688" stroke-miterlimit="10"/>
<path d="M13.8818 46.418C59.6338 45.765 54.6948 -2.39804 84.4428 0.607958C114.191 3.61396 144.079 69.589 177.034 62.887C209.989 56.184 221.509 -5.97903 243.146 3.15297C264.783 12.285 217.531 56.527 236.299 55.071C255.068 53.614 282.416 19.867 311.666 21.997C324.413 22.925 372.352 70.021 407.393 51.483" stroke="white" stroke-width="0.5" stroke-miterlimit="10"/>
</svg>
