<svg xmlns="http://www.w3.org/2000/svg" width="254" height="254" viewBox="0 0 254 254" fill="none" class="obj-bg"   >
                        <mask id="mask0_340_102" style="mask-type:alpha" maskUnits="userSpaceOnUse" x="1" y="1" width="253" height="253">
                        <rect x="1" y="1" width="252.55" height="252.55" fill="url(#paint0_radial_340_102)"/>
                        </mask>
                        <g mask="url(#mask0_340_102)">
                        <path d="M1 1.02938C1 1.02938 64.136 1.02938 127.272 1.02938C130.429 1.02938 133.586 1.02938 136.734 1.02838C149.462 0.990376 161.676 0.990376 173.637 1.02938C176.597 1.02938 179.517 1.02938 182.389 1.02938C222.607 1.02938 253.543 1.02938 253.543 1.02938" stroke="white" stroke-width="0.5" stroke-miterlimit="10"/>
                        <path d="M1 14.3201C1 14.3201 52.14 14.3201 108.394 14.3201C111.519 14.3211 114.66 14.3221 117.808 14.3201C141.69 13.2031 165.007 13.2031 189.813 14.3071C192.252 14.3201 194.647 14.3201 196.994 14.3201C229.858 14.3201 253.544 14.3201 253.544 14.3201" stroke="white" stroke-width="0.5" stroke-miterlimit="10"/>
                        <path d="M1 27.6108C1 27.6108 46.616 27.6108 99.074 27.6108C102.16 27.6218 105.27 27.6318 108.415 27.6638C138.359 27.6368 169.449 25.4158 198.982 27.5798C201.646 27.6088 204.235 27.6108 206.753 27.6108C234.446 27.6108 253.545 27.6108 253.545 27.6108" stroke="white" stroke-width="0.5" stroke-miterlimit="10"/>
                        <path d="M1 40.9016C1 40.9016 36.514 40.9016 80.907 40.9016C83.867 40.9016 86.865 40.9016 89.896 40.9016C93.009 40.9066 96.11 40.9876 99.199 41.1266C135.028 40.9596 171.67 39.8496 206.696 40.8516C211.349 40.9046 215.735 40.9026 219.834 40.9006C240.281 40.9006 253.544 40.9006 253.544 40.9006" stroke="white" stroke-width="0.5" stroke-miterlimit="10"/>
                        <path d="M1 54.1914C1 54.1914 36.514 54.1914 80.907 54.1914C83.867 54.1914 86.865 54.1914 89.896 54.1914C92.462 53.8874 95.001 53.7684 97.521 53.7994C115.043 54.2824 130.587 57.6134 148.353 59.8344C170.56 63.1654 191.657 56.5034 214.08 54.1964C218.82 54.1924 223.239 54.1925 227.28 54.1925C243.443 54.1925 253.545 54.1925 253.545 54.1925" stroke="white" stroke-width="0.5" stroke-miterlimit="10"/>
                        <path d="M1 67.4822C1 67.4822 36.514 67.4822 80.907 67.4822C83.867 67.4822 86.865 67.4822 89.896 67.4822C92.462 67.2852 95.001 67.2632 97.52 67.3842C100.038 67.5051 102.53 67.7521 104.973 68.0121C130.587 68.716 152.794 83.1487 177.222 84.2586C190.546 84.2586 200.539 73.1556 212.89 68.641C215.126 67.8521 217.42 67.2932 219.814 67.0662C222.195 66.8412 224.675 66.9472 227.281 67.4822C231.322 67.4822 234.984 67.4822 238.204 67.4822C247.864 67.4822 253.546 67.4822 253.546 67.4822" stroke="white" stroke-width="0.5" stroke-miterlimit="10"/>
                        <path d="M1 80.7731C1 80.7731 36.514 80.7731 80.907 80.7731C83.867 80.7731 86.865 80.7731 89.896 80.7731C93.532 80.6141 97.086 80.6971 100.588 80.972C104.09 81.247 107.527 81.677 110.868 82.0999C127.256 83.1488 141.69 89.8102 156.125 96.4716C179.442 106.464 199.429 93.1409 218.978 82.5679C221.953 81.467 225.008 80.6611 228.196 80.3081C231.383 79.9561 234.702 80.0581 238.203 80.7721C243.033 80.7721 246.868 80.7721 249.496 80.7721C252.124 80.7721 253.545 80.7721 253.545 80.7721" stroke="white" stroke-width="0.5" stroke-miterlimit="10"/>
                        <path d="M1 94.0639C1 94.0639 41.407 94.0639 89.896 94.0639C92.926 94.0639 95.989 94.0649 99.074 94.0709C102.718 94.8259 106.343 95.5258 109.953 96.1687C140.579 99.8034 171.669 114.236 202.529 105.757C205.93 104.823 209.319 103.612 212.69 102.079C216.061 100.546 219.414 98.6925 222.745 96.4717C228.297 93.141 232.738 94.2509 238.22 94.0809C243.031 94.0639 246.867 94.0639 249.495 94.0639C252.123 94.0639 253.544 94.0639 253.544 94.0639" stroke="white" stroke-width="0.5" stroke-miterlimit="10"/>
                        <path d="M1 107.354C1 107.354 52.14 107.354 108.394 107.354C111.519 107.355 114.674 107.368 117.982 107.55C141.689 115.347 166.117 117.568 190.289 116.009C194.291 115.661 198.291 115.203 202.29 114.649C214.287 112.985 226.27 110.45 238.251 107.4C243.031 107.354 246.867 107.354 249.495 107.354C252.123 107.354 253.544 107.354 253.544 107.354" stroke="white" stroke-width="0.5" stroke-miterlimit="10"/>
                        <path d="M1 120.644C1 120.644 57.98 120.644 117.81 120.644C120.959 120.644 124.121 120.649 127.343 120.711C150.573 124.228 172.78 129.779 197.208 126.448C211.643 124.227 223.856 119.786 238.224 120.663C241.423 120.644 244.2 120.644 246.473 120.644C251.019 120.644 253.544 120.644 253.544 120.644" stroke="white" stroke-width="0.5" stroke-miterlimit="10"/>
                        <path d="M1 133.935C1 133.935 11.961 133.935 29.316 133.935C32.787 133.935 36.511 133.935 40.432 133.94C43.059 133.987 45.711 134.026 48.378 134.057C51.045 134.088 53.728 134.111 56.415 134.122C69.517 134.221 82.841 134.221 95.948 133.939C98.523 133.938 101.111 133.937 103.72 133.936C111.489 133.936 119.381 133.936 127.273 133.936C130.43 133.936 133.587 133.936 136.755 133.948C168.339 137.552 199.429 136.442 230.32 134.01C235.053 133.94 239.241 133.936 242.694 133.936C249.599 133.936 253.545 133.936 253.545 133.936" stroke="white" stroke-width="0.5" stroke-miterlimit="10"/>
                        <path d="M1 147.226C1 147.226 3.525 147.226 8.071 147.226C10.344 147.226 13.122 147.226 16.342 147.226C20.213 147.266 24.069 147.283 27.913 147.285C61.744 145.323 93.944 147.544 127.272 147.226C131.218 147.226 135.164 147.226 139.095 147.226C143.026 147.226 146.941 147.226 150.844 147.237C173.891 147.544 198.318 147.544 221.707 147.257C226.524 147.227 230.941 147.226 234.838 147.226C246.53 147.226 253.545 147.226 253.545 147.226" stroke="white" stroke-width="0.5" stroke-miterlimit="10"/>
                        <path d="M1 160.517C1 160.517 4.946 160.517 11.78 160.529C15.222 160.452 18.653 160.349 22.059 160.171C60.634 153.095 98.386 158.647 136.734 160.518C139.883 160.518 143.024 160.518 146.149 160.518C151.774 160.518 157.349 160.518 162.826 160.518C165.564 160.518 168.279 160.518 170.964 160.519C182.772 160.868 196.096 160.868 208.254 160.518C212.734 160.518 216.978 160.518 220.942 160.518C240.759 160.518 253.544 160.518 253.544 160.518" stroke="white" stroke-width="0.5" stroke-miterlimit="10"/>
                        <path d="M1 173.808C1 173.808 3.525 173.808 8.009 173.818C11.939 173.522 15.863 173.16 19.735 172.589C57.304 159.756 97.277 164.198 136.577 173.751C139.873 173.8 143.025 173.807 146.15 173.809C202.404 173.809 253.544 173.809 253.544 173.809" stroke="white" stroke-width="0.5" stroke-miterlimit="10"/>
                        <path d="M1 187.097C1 187.097 3.52501 187.097 7.99001 187.11C11.398 187.547 14.694 187.522 17.877 187.03C30.655 184.18 40.648 175.298 53.973 171.967C82.842 165.306 107.27 180.85 135.131 184.832C138.956 185.49 142.595 186.245 146.15 187.091C149.276 187.093 152.385 187.094 155.471 187.095C207.929 187.095 253.545 187.095 253.545 187.095" stroke="white" stroke-width="0.5" stroke-miterlimit="10"/>
                        <path d="M1 200.388C1 200.388 3.52501 200.388 8.04701 200.392C10.368 200.503 12.733 200.655 15.073 200.712C30.655 203.056 37.317 186.402 50.641 181.961C61.744 177.52 73.958 179.74 85.062 183.07C101.717 188.622 117.262 195.283 135.207 197.608C138.988 198.421 142.575 199.31 146.128 200.251C149.275 200.378 152.385 200.382 155.471 200.388C207.929 200.388 253.545 200.388 253.545 200.388" stroke="white" stroke-width="0.5" stroke-miterlimit="10"/>
                        <path d="M1 213.679C1 213.679 3.525 213.679 8.071 213.679C10.344 213.679 13.122 213.679 16.313 213.674C22.883 211.938 31.765 215.269 36.207 209.718C63.966 177.521 102.828 206.388 135.492 210.4C139.039 211.326 142.581 212.368 146.134 213.526C149.275 213.663 152.384 213.67 155.47 213.68C207.928 213.68 253.544 213.68 253.544 213.68" stroke="white" stroke-width="0.5" stroke-miterlimit="10"/>
                        <path d="M1 226.969C1 226.969 6.68201 226.969 16.342 226.969C19.562 226.969 23.224 226.969 27.259 226.926C30.655 226.371 33.986 227.481 36.207 226.371C63.966 204.167 95.056 217.489 124.697 222.419C128.379 223.097 131.943 223.804 135.517 224.571C139.052 225.292 142.595 226.071 146.15 226.902C149.275 226.956 152.385 226.962 155.47 226.97C207.928 226.97 253.544 226.97 253.544 226.97" stroke="white" stroke-width="0.5" stroke-miterlimit="10"/>
                        <path d="M1 240.261C1 240.261 11.102 240.261 27.265 240.261C31.306 240.261 35.725 240.261 40.46 240.253C43.953 239.351 47.461 238.595 50.968 237.93C68.407 235.254 86.172 234.144 103.887 236.124C107.459 236.351 110.992 236.621 114.511 236.914C118.002 237.209 121.478 237.528 124.936 237.853C128.456 238.153 131.981 238.503 135.516 238.903C139.051 239.303 142.594 239.753 146.149 240.253C149.274 240.257 152.384 240.259 155.469 240.261C207.927 240.261 253.543 240.261 253.543 240.261" stroke="white" stroke-width="0.5" stroke-miterlimit="10"/>
                        <path d="M1 253.55C1 253.55 20.099 253.55 47.792 253.55C50.309 253.543 52.898 253.54 55.55 253.522C62.373 253.396 69.156 253.301 75.916 253.235C82.676 253.17 89.42 253.143 96.161 253.145C102.901 253.146 109.639 253.179 116.395 253.245C123.151 253.311 129.925 253.409 136.736 253.54C139.885 253.544 143.026 253.546 146.151 253.55C202.405 253.55 253.545 253.55 253.545 253.55" stroke="white" stroke-width="0.5" stroke-miterlimit="10"/>
                        <path d="M1 253.55V1.0293" stroke="white" stroke-width="0.5" stroke-miterlimit="10"/>
                        <path d="M14.292 253.55C14.292 253.55 14.292 243.449 14.292 227.287C14.292 223.247 14.292 218.828 14.282 214.095C14.188 207.454 14.125 200.93 14.092 194.444C14.059 187.959 14.059 181.525 14.089 175.06C14.118 168.592 14.177 162.092 14.266 155.489C14.29 152.399 14.292 149.291 14.292 146.165C14.292 77.4162 14.292 1.02832 14.292 1.02832" stroke="white" stroke-width="0.5" stroke-miterlimit="10"/>
                        <path d="M27.5841 253.55C27.5841 253.55 27.5841 247.868 27.5841 238.209C27.5841 234.99 27.5841 231.328 27.5791 227.263C26.2141 204.165 26.2141 181.961 26.6021 159.023C26.9141 151.67 27.2411 144.168 27.5841 136.751C27.5841 133.602 27.5841 130.445 27.5841 127.29C27.5841 64.1594 27.5841 1.0293 27.5841 1.0293" stroke="white" stroke-width="0.5" stroke-miterlimit="10"/>
                        <path d="M40.8761 253.55C40.8761 253.55 40.8761 252.129 40.8761 249.501C40.8761 246.874 40.8761 243.038 40.8661 238.169C35.0971 207.496 33.9871 174.188 39.5111 143.355C39.9431 139.874 40.3831 136.297 40.8471 132.703C40.8761 129.995 40.8761 127.289 40.8761 124.584C40.8761 62.3686 40.8761 1.0293 40.8761 1.0293" stroke="white" stroke-width="0.5" stroke-miterlimit="10"/>
                        <path d="M54.167 253.547C53.596 249.987 53.0411 246.446 52.5111 242.922C46.2001 208.607 40.6481 173.079 51.5741 139.174C52.3691 135.844 53.203 132.371 54.142 128.872C54.167 125.975 54.167 123.081 54.167 120.191C54.167 59.5139 54.167 1.0293 54.167 1.0293" stroke="white" stroke-width="0.5" stroke-miterlimit="10"/>
                        <path d="M67.459 253.276C67.577 250.19 67.456 247.161 67.129 244.176C63.965 220.82 47.31 199.725 50.641 174.189C52.862 157.536 68.407 146.433 67.451 128.474C67.458 125.712 67.458 122.949 67.458 120.191C67.458 59.5139 67.458 1.0293 67.458 1.0293" stroke="white" stroke-width="0.5" stroke-miterlimit="10"/>
                        <path d="M80.718 252.651C80.702 248.826 80.322 245.086 79.584 241.361C67.297 208.607 48.421 174.189 77.29 141.992C80.621 139.771 81.731 134.221 80.751 128.474C80.751 125.712 80.751 122.949 80.751 120.191C80.751 59.5139 80.751 1.0293 80.751 1.0293" stroke="white" stroke-width="0.5" stroke-miterlimit="10"/>
                        <path d="M93.9941 252.337C93.2121 248.408 92.4231 244.498 91.5241 240.612C78.4011 206.386 68.4081 168.638 93.7931 136.768C93.9951 133.606 94.0441 130.446 94.0441 127.29C94.0441 114.138 94.0441 100.985 94.0441 88.4042C94.0441 85.8884 94.0441 83.3947 94.0441 80.9289C93.9461 67.6061 93.9461 54.2824 94.0441 40.4856C94.0441 36.54 94.0441 32.8134 94.0441 29.3427C94.0441 11.9893 94.0441 1.0293 94.0441 1.0293" stroke="white" stroke-width="0.5" stroke-miterlimit="10"/>
                        <path d="M107.311 252.678C106.863 249.159 106.437 245.637 106.041 242.111C105.472 238.597 104.933 235.08 104.257 231.57C90.615 199.725 97.277 167.528 107.224 136.759C107.335 132.619 107.335 128.472 107.335 124.331C107.335 120.189 107.335 116.052 107.335 111.936C107.335 109.192 107.335 106.459 107.335 103.74C107.466 100.333 107.563 96.9184 107.632 93.4987C107.702 90.078 107.743 86.6483 107.754 83.1847C107.27 62.0546 107.27 42.0705 107.335 21.5234C107.335 18.3337 107.335 15.4569 107.335 12.9382C107.335 5.37987 107.335 1.03027 107.335 1.03027" stroke="white" stroke-width="0.5" stroke-miterlimit="10"/>
                        <path d="M120.626 253.276C120.512 249.697 120.42 246.122 120.347 242.547C120.256 238.95 120.183 235.356 120.108 231.741C112.82 204.166 117.262 175.299 120.544 146.172C120.622 143.042 120.626 139.9 120.626 136.752C120.626 133.997 120.626 131.235 120.626 128.473C120.626 125.712 120.626 122.95 120.626 120.193C120.991 117.72 121.294 115.289 121.552 112.886C121.807 110.483 122.014 108.108 122.182 105.733C125.035 72.0467 120.594 39.8497 120.627 6.49079C120.627 2.96212 120.627 1.0293 120.627 1.0293" stroke="white" stroke-width="0.5" stroke-miterlimit="10"/>
                        <path d="M133.918 253.547C133.918 245.92 133.918 238.396 133.918 230.938C133.918 227.209 133.918 223.498 133.918 219.797C133.918 216.096 133.892 212.41 133.803 208.734C132.807 190.843 133.918 173.078 133.918 155.485C133.918 152.95 133.918 150.399 133.918 147.838C133.918 145.276 133.918 142.702 133.918 140.121C133.918 137.541 133.918 134.953 133.921 132.363C135.309 128.987 136.453 125.582 137.377 122.155C143.911 82.0388 132.807 40.9596 133.918 1.0293" stroke="white" stroke-width="0.5" stroke-miterlimit="10"/>
                        <path d="M147.21 253.55C147.21 253.55 147.21 247.868 147.21 238.209C147.21 234.99 147.21 231.328 147.21 227.282C147.242 215.267 147.242 203.056 147.209 190.868C147.21 188.099 147.21 185.274 147.21 182.401C147.21 173.649 147.21 164.458 147.21 155.05C147.21 151.914 147.21 148.755 147.214 145.58C147.228 140.454 147.512 135.394 148.626 130.782C149.74 126.17 151.683 122.006 154.992 118.66C159.456 113.125 162.787 106.463 162.787 98.6912C160.566 65.3833 142.801 35.4071 147.208 1.02026" stroke="white" stroke-width="0.5" stroke-miterlimit="10"/>
                        <path d="M160.502 253.55C160.502 253.55 160.502 212.386 160.502 163.297C160.502 160.713 160.502 158.108 160.503 155.487C158.869 147.075 161.105 139.537 164.444 132.438C165.557 130.071 166.793 127.753 168.048 125.469C176.111 114.237 179.442 100.914 177.221 86.4803C170.559 56.5041 156.124 30.9674 160.499 1.02222" stroke="white" stroke-width="0.5" stroke-miterlimit="10"/>
                        <path d="M173.794 253.55C173.794 253.55 173.794 216.604 173.794 170.978C173.794 168.443 173.794 165.881 173.795 163.297C171.638 148.354 178.322 135.971 184.004 123.126C185.425 119.914 186.776 116.676 187.898 113.359C190.546 106.465 191.657 98.6932 190.546 92.0318C181.663 60.9447 169.449 33.1893 173.794 1.03027" stroke="white" stroke-width="0.5" stroke-miterlimit="10"/>
                        <path d="M187.085 253.55C187.085 253.55 187.085 216.604 187.085 170.978C187.085 168.443 187.085 165.881 187.086 163.297C185.342 147.393 191.991 133.177 196.184 117.958C197.023 114.915 197.763 111.831 198.318 108.685C199.428 77.5982 183.883 47.622 187.065 16.3039C187.084 11.5363 187.085 7.70666 187.085 5.0789C187.085 2.45115 187.085 1.03027 187.085 1.03027" stroke="white" stroke-width="0.5" stroke-miterlimit="10"/>
                        <path d="M200.377 253.55C200.377 253.55 200.377 216.604 200.377 170.978C200.377 168.294 200.377 165.58 200.377 162.841C202.679 142.424 204.94 122.224 205.496 101.936C205.589 97.8823 205.616 93.8227 205.542 89.7441C204.98 68.716 200.539 48.7319 200.365 27.2848C200.373 23.2532 200.375 19.5906 200.377 16.3709C200.377 6.71175 200.377 1.03027 200.377 1.03027" stroke="white" stroke-width="0.5" stroke-miterlimit="10"/>
                        <path d="M213.669 253.55C213.669 253.55 213.669 212.386 213.669 163.297C213.669 160.41 213.669 157.495 213.678 154.567C215.362 130.998 215.867 108.151 215.19 85.2025C215.092 81.9238 214.97 78.6441 214.822 75.3594C213.863 66.4952 213.863 56.5032 213.667 47.817C213.668 43.2014 213.668 38.8258 213.668 34.7362C213.668 14.2911 213.668 1.0293 213.668 1.0293" stroke="white" stroke-width="0.5" stroke-miterlimit="10"/>
                        <path d="M226.961 253.55C226.961 253.55 226.961 205.215 226.961 150.84C226.961 148.122 226.965 145.391 226.985 142.665C227.187 119.786 228.297 95.3616 226.984 72.2047C226.961 69.6649 226.96 67.1862 226.96 64.7514C226.96 28.2178 226.96 1.0293 226.96 1.0293" stroke="white" stroke-width="0.5" stroke-miterlimit="10"/>
                        <path d="M240.252 253.55C240.252 253.55 240.252 196.575 240.252 136.752C240.252 133.603 240.252 130.446 240.252 127.291C240.511 115.347 240.511 102.024 240.253 89.918C240.252 86.8873 240.252 83.8886 240.252 80.9299C240.252 36.541 240.252 1.03027 240.252 1.03027" stroke="white" stroke-width="0.5" stroke-miterlimit="10"/>
                        <path d="M253.544 253.55V1.0293" stroke="white" stroke-width="0.5" stroke-miterlimit="10"/>
                        </g>
                        <defs>
                        <radialGradient id="paint0_radial_340_102" cx="0" cy="0" r="1" gradientUnits="userSpaceOnUse" gradientTransform="translate(127.275 127.275) rotate(90.0902) scale(174.725 179.763)">
                            <stop stop-color="white"/>
                            <stop offset="0.527714" stop-color="white" stop-opacity="0.7"/>
                            <stop offset="0.75668" stop-color="white" stop-opacity="0"/>
                        </radialGradient>
                        </defs>
                    </svg>