<svg width="288" height="288" viewBox="0 0 288 288" fill="none" xmlns="http://www.w3.org/2000/svg">
<g clip-path="url(#clip0_370_148)">
<path d="M231.75 13.5H56.25C30.1545 13.5 9 34.6545 9 60.75V227.25C9 253.345 30.1545 274.5 56.25 274.5H231.75C257.845 274.5 279 253.345 279 227.25V60.75C279 34.6545 257.845 13.5 231.75 13.5Z" fill="white"/>
<path d="M144.888 175.5H104.625L94.2296 205.515C94.1096 206.505 93.4833 207 92.3508 207H73.4508C72.1908 207 71.7521 206.381 72.1346 205.144L108.607 96.8175C109.637 93.5192 110.146 90.0803 110.115 86.625C110.094 86.4725 110.109 86.3173 110.159 86.1715C110.208 86.0257 110.29 85.8933 110.399 85.7845C110.508 85.6756 110.64 85.5934 110.786 85.544C110.932 85.4947 111.087 85.4796 111.24 85.5H137.7C138.465 85.5 138.903 85.815 139.027 86.4225L179.842 205.335C180.225 206.46 179.91 207 178.897 207H157.736C157.344 207.023 156.955 206.929 156.618 206.728C156.281 206.527 156.012 206.23 155.846 205.875L144.888 175.5ZM109.125 155.25H140.49C139.736 153.596 125.628 108.079 124.616 104.243H124.436L109.125 155.25ZM202.398 108C200.624 108.076 198.853 107.795 197.19 107.175C195.526 106.555 194.003 105.607 192.712 104.389C191.448 103.104 190.466 101.57 189.827 99.8854C189.187 98.2004 188.906 96.4009 189 94.6013C188.916 92.7787 189.212 90.9587 189.868 89.2564C190.525 87.5542 191.528 86.0069 192.813 84.7125C194.115 83.4733 195.652 82.5065 197.333 81.869C199.013 81.2315 200.804 80.936 202.601 81C204.401 80.9063 206.2 81.1879 207.885 81.8271C209.57 82.4662 211.104 83.4488 212.388 84.7125C213.618 86.0374 214.571 87.5946 215.191 89.2927C215.811 90.9908 216.086 92.7956 216 94.6013C216.093 96.4009 215.812 98.2004 215.173 99.8854C214.533 101.57 213.551 103.104 212.287 104.389C210.962 105.619 209.405 106.572 207.707 107.192C206.009 107.812 204.204 108.087 202.398 108ZM191.25 205.313V118.508C191.219 118.303 191.237 118.093 191.302 117.897C191.367 117.7 191.478 117.521 191.624 117.375C191.771 117.228 191.949 117.118 192.146 117.053C192.343 116.988 192.552 116.97 192.757 117H212.242C212.447 116.972 212.655 116.992 212.85 117.058C213.046 117.124 213.224 117.234 213.37 117.38C213.516 117.526 213.626 117.704 213.692 117.899C213.758 118.095 213.778 118.303 213.75 118.508V205.493C213.78 205.697 213.762 205.907 213.697 206.103C213.632 206.3 213.522 206.479 213.375 206.625C213.229 206.772 213.05 206.882 212.853 206.947C212.656 207.012 212.447 207.03 212.242 207H192.937C192.708 207.032 192.475 207.01 192.256 206.936C192.036 206.863 191.837 206.739 191.674 206.576C191.51 206.412 191.387 206.213 191.313 205.994C191.24 205.775 191.218 205.542 191.25 205.313Z" fill="black"/>
</g>
<defs>
<clipPath id="clip0_370_148">
<rect width="288" height="288" fill="white"/>
</clipPath>
</defs>
</svg>
