<svg width="288" height="288" viewBox="0 0 288 288" fill="none" xmlns="http://www.w3.org/2000/svg">
<g clip-path="url(#clip0_370_142)">
<path d="M231.75 13.5H56.25C30.1545 13.5 9 34.6545 9 60.75V227.25C9 253.345 30.1545 274.5 56.25 274.5H231.75C257.845 274.5 279 253.345 279 227.25V60.75C279 34.6545 257.845 13.5 231.75 13.5Z" fill="white"/>
<path d="M147.791 87.345L114.581 144.405L150.368 205.155C151.099 206.393 150.784 207 149.445 207H127.125C126.572 207.058 126.015 206.949 125.525 206.686C125.036 206.423 124.637 206.019 124.38 205.526L99.1913 159.323H99L74.475 205.526C74.2495 205.966 73.9082 206.336 73.4878 206.595C73.0675 206.855 72.5841 206.995 72.09 207H50.625C49.3988 207 49.1625 206.393 49.8938 205.155L85.0838 146.07L51.5588 86.9738C50.8275 85.995 51.075 85.5 52.29 85.5H74.655C75.1346 85.4657 75.6139 85.5693 76.0365 85.7985C76.4591 86.0278 76.8073 86.3731 77.04 86.7938L100.665 132.446H100.845L124.346 86.7938C124.578 86.3749 124.925 86.0308 125.345 85.8017C125.765 85.5726 126.242 85.4679 126.72 85.5H147.06C148.41 85.5 148.646 86.1188 147.791 87.345ZM202.354 209.25C189.304 209.25 179.258 205.549 171.461 198.158C163.665 190.766 159.75 179.843 159.75 165.375C159.75 152.228 163.943 141.428 172.328 132.975C176.618 128.534 181.777 125.024 187.482 122.663C193.188 120.302 199.319 119.14 205.493 119.25C208.256 119.201 211.015 119.496 213.705 120.128V82.0576C213.685 81.9149 213.698 81.7695 213.743 81.6328C213.788 81.496 213.864 81.3715 213.966 81.2691C214.067 81.1667 214.191 81.0891 214.327 81.0424C214.463 80.9958 214.608 80.9813 214.751 81H235.316C235.89 81 236.183 81.3488 236.183 82.0576V188.651C236.183 193.151 238.129 196.988 238.433 200.273C238.495 200.598 238.441 200.935 238.281 201.224C238.12 201.514 237.864 201.739 237.555 201.859C227.464 206.786 214.234 209.25 202.354 209.25ZM213.75 191.824V137.408C213.019 136.125 209.149 135 205.189 135C201.911 134.915 198.656 135.563 195.661 136.896C192.665 138.229 190.006 140.214 187.875 142.706C182.686 148.783 179.887 156.541 180 164.531C180 174.386 183.375 181.136 187.774 185.828C189.853 188.212 192.414 190.128 195.288 191.451C198.161 192.773 201.283 193.472 204.446 193.5C208.643 193.5 212.749 192.87 213.75 191.824Z" fill="black"/>
</g>
<defs>
<clipPath id="clip0_370_142">
<rect width="288" height="288" fill="white"/>
</clipPath>
</defs>
</svg>
