<svg width="24" height="24" viewBox="0 0 24 24" fill="none" xmlns="http://www.w3.org/2000/svg">
<g clip-path="url(#clip0_370_157)">
<path d="M23.9252 12.839L23.9262 12.859L23.9292 12.877L23.9252 12.839ZM22.8972 10.068L22.9122 10.094L22.9142 10.097L22.8972 10.068Z" fill="black"/>
<path d="M15.7519 10.418H15.7269C14.8919 10.418 14.1279 10.716 13.5389 11.208C12.9469 11.708 12.5549 12.414 12.5089 13.214H12.5099C12.4649 14.036 12.7949 14.798 13.3749 15.365C13.9849 15.947 14.8099 16.304 15.7189 16.304H15.7859C16.6949 16.304 17.5199 15.947 18.1269 15.366C18.7069 14.799 19.0369 14.036 18.9919 13.213C18.9469 12.414 18.5559 11.708 17.9639 11.208C17.3424 10.6928 16.5592 10.4131 15.7519 10.418Z" fill="white"/>
<path d="M22.0877 18.965C22.8007 18.1849 23.3384 17.2612 23.6647 16.256L23.6797 16.203C23.8941 15.5282 24.002 14.8241 23.9997 14.116C23.9978 12.7828 23.6208 11.4771 22.9117 10.348C22.4242 9.57048 21.8042 8.88443 21.0797 8.32104L21.0617 8.30804H21.0637L13.5457 2.53604C13.0537 2.15804 12.2267 2.16004 11.6857 2.53804C11.1387 2.92004 11.0767 3.55304 11.5627 3.95304L11.5617 3.95404L14.6877 6.49704L5.14472 6.50704C4.35672 6.50804 3.59972 7.02504 3.44972 7.67904C3.29572 8.34404 3.82972 8.89604 4.64972 8.89904V8.90104L9.47972 8.89104L0.825723 15.533C0.0127227 16.155 -0.249277 17.191 0.262723 17.846C0.782723 18.513 1.88772 18.514 2.70972 17.85L7.41372 14.001C7.41372 14.001 7.34472 14.521 7.35072 14.832L7.34872 14.831C7.35472 15.145 7.45472 15.753 7.60472 16.229C7.92974 17.2552 8.47514 18.1978 9.20272 18.991C9.96705 19.8303 10.8965 20.5027 11.9327 20.966L11.9847 20.987C13.1206 21.4922 14.3506 21.7512 15.5937 21.747H15.6627C16.9627 21.747 18.1967 21.468 19.3117 20.97C20.3627 20.5018 21.3057 19.8216 22.0817 18.972L22.0877 18.965ZM20.4707 14.954C20.2456 15.56 19.8941 16.1112 19.4397 16.571L19.4377 16.572C18.4677 17.56 17.1117 18.12 15.6427 18.122C14.1727 18.126 12.8157 17.57 11.8457 16.584C11.3955 16.1319 11.0459 15.5897 10.8197 14.993L10.8097 14.962C10.6412 14.4979 10.5559 14.0078 10.5577 13.514C10.5577 12.762 10.7527 12.056 11.0927 11.441C11.384 10.9187 11.7719 10.4565 12.2357 10.079L12.2447 10.072C13.1867 9.30404 14.3857 8.88904 15.6407 8.88704C16.8957 8.88504 18.0957 9.29704 19.0387 10.062C19.5187 10.453 19.9087 10.916 20.1907 11.429C20.4697 11.921 20.6557 12.501 20.7117 13.118L20.7127 13.134C20.7677 13.7511 20.685 14.3727 20.4707 14.954Z" fill="white"/>
<path d="M19.3587 20.698C19.3437 20.705 19.3277 20.709 19.3117 20.716C19.3085 20.7173 19.3055 20.719 19.3027 20.721L19.3587 20.698Z" fill="black"/>
</g>
<defs>
<clipPath id="clip0_370_157">
<rect width="24" height="24" fill="white"/>
</clipPath>
</defs>
</svg>
