<svg width="512" height="512" viewBox="0 0 512 512" fill="none" xmlns="http://www.w3.org/2000/svg">
<path d="M71.3575 460.819L30.2725 0H481.728L440.599 460.746L255.724 512L71.3575 460.819Z" fill="white"/>
<path d="M405.388 431.408L440.536 37.678H256V472.824L405.388 431.408Z" fill="white"/>
<path d="M124.46 208.59L129.525 265.107H256V208.59H124.46ZM119.419 150.715H256V94.197H114.281L119.419 150.715ZM256 355.372L255.752 355.438L192.808 338.442L188.785 293.366H132.049L139.968 382.107L255.74 414.247L256 414.174V355.372Z" fill="black"/>
<path d="M255.805 208.59V265.107H325.4L318.84 338.406L255.805 355.419V414.219L371.669 382.107L372.519 372.558L385.799 223.766L387.179 208.59L397.382 94.197H255.805V150.715H335.444L330.3 208.59H255.805Z" fill="black"/>
</svg>
