<svg width="63" height="64" viewBox="0 0 63 64" fill="none" xmlns="http://www.w3.org/2000/svg">
<mask id="mask0_370_104" style="mask-type:luminance" maskUnits="userSpaceOnUse" x="0" y="0" width="63" height="64">
<path d="M61.8182 26.1818H32V38.5455H49.1637C47.5637 46.4 40.8727 50.9091 32 50.9091C21.5273 50.9091 13.0909 42.4727 13.0909 32C13.0909 21.5273 21.5273 13.0909 32 13.0909C36.5091 13.0909 40.5818 14.6909 43.7818 17.3091L53.0909 8C47.4182 3.05455 40.1455 0 32 0C14.2546 0 0 14.2546 0 32C0 49.7455 14.2546 64 32 64C48 64 62.5455 52.3637 62.5455 32C62.5455 30.1091 62.2546 28.0727 61.8182 26.1818Z" fill="white"/>
</mask>
<g mask="url(#mask0_370_104)">
<path d="M-2.90918 50.909V13.0908L21.8181 31.9999L-2.90918 50.909Z" fill="white"/>
</g>
<mask id="mask1_370_104" style="mask-type:luminance" maskUnits="userSpaceOnUse" x="0" y="0" width="63" height="64">
<path d="M61.8182 26.1818H32V38.5455H49.1637C47.5637 46.4 40.8727 50.9091 32 50.9091C21.5273 50.9091 13.0909 42.4727 13.0909 32C13.0909 21.5273 21.5273 13.0909 32 13.0909C36.5091 13.0909 40.5818 14.6909 43.7818 17.3091L53.0909 8C47.4182 3.05455 40.1455 0 32 0C14.2546 0 0 14.2546 0 32C0 49.7455 14.2546 64 32 64C48 64 62.5455 52.3637 62.5455 32C62.5455 30.1091 62.2546 28.0727 61.8182 26.1818Z" fill="white"/>
</mask>
<g mask="url(#mask1_370_104)">
<path d="M-2.90918 13.0908L21.8181 31.9999L31.9999 23.1272L66.909 17.4545V-2.90918H-2.90918V13.0908Z" fill="white"/>
</g>
<mask id="mask2_370_104" style="mask-type:luminance" maskUnits="userSpaceOnUse" x="0" y="0" width="63" height="64">
<path d="M61.8182 26.1818H32V38.5455H49.1637C47.5637 46.4 40.8727 50.9091 32 50.9091C21.5273 50.9091 13.0909 42.4727 13.0909 32C13.0909 21.5273 21.5273 13.0909 32 13.0909C36.5091 13.0909 40.5818 14.6909 43.7818 17.3091L53.0909 8C47.4182 3.05455 40.1455 0 32 0C14.2546 0 0 14.2546 0 32C0 49.7455 14.2546 64 32 64C48 64 62.5455 52.3637 62.5455 32C62.5455 30.1091 62.2546 28.0727 61.8182 26.1818Z" fill="white"/>
</mask>
<g mask="url(#mask2_370_104)">
<path d="M-2.90918 50.909L40.7272 17.4545L52.2181 18.909L66.909 -2.90918V66.909H-2.90918V50.909Z" fill="white"/>
</g>
<mask id="mask3_370_104" style="mask-type:luminance" maskUnits="userSpaceOnUse" x="0" y="0" width="63" height="64">
<path d="M61.8182 26.1818H32V38.5455H49.1637C47.5637 46.4 40.8727 50.9091 32 50.9091C21.5273 50.9091 13.0909 42.4727 13.0909 32C13.0909 21.5273 21.5273 13.0909 32 13.0909C36.5091 13.0909 40.5818 14.6909 43.7818 17.3091L53.0909 8C47.4182 3.05455 40.1455 0 32 0C14.2546 0 0 14.2546 0 32C0 49.7455 14.2546 64 32 64C48 64 62.5455 52.3637 62.5455 32C62.5455 30.1091 62.2546 28.0727 61.8182 26.1818Z" fill="white"/>
</mask>
<g mask="url(#mask3_370_104)">
<path d="M66.9091 66.909L21.8182 31.9999L16 27.6363L66.9091 13.0908V66.909Z" fill="white"/>
</g>
</svg>
