<svg width="24" height="24" viewBox="0 0 24 24" fill="none" xmlns="http://www.w3.org/2000/svg">
<path d="M3.34495 21.601L1.41895 0H22.5809L20.6529 21.598L11.9869 24L3.34495 21.601Z" fill="white"/>
<path d="M12 22.164L19.002 20.222L20.65 1.76599H12V22.164Z" fill="white"/>
<path d="M12.0004 9.77798H8.49542L8.25242 7.06498H12.0004V4.41498H5.35742L5.42042 5.12598L6.07142 12.426H12.0004V9.77798ZM12.0004 16.658L11.9884 16.661L9.03842 15.864L8.84942 13.751H6.19042L6.56142 17.911L11.9884 19.418L12.0004 19.414V16.658Z" fill="#EBEBEB"/>
<path d="M11.9912 9.77798V12.427H15.2542L14.9462 15.863L11.9912 16.66V19.416L17.4222 17.911L17.4622 17.463L18.0852 10.489L18.1492 9.77698H17.4352L11.9912 9.77798ZM11.9912 4.41498V7.06498H18.3902L18.4432 6.46898L18.5642 5.12598L18.6272 4.41498H11.9912Z" fill="black"/>
<path d="M12.0003 23.996L11.9873 24H12.0003V23.996Z" fill="#DEDEDE"/>
<path d="M11.9999 7.065H8.25195L8.49395 9.778H11.9899H11.9999V7.065ZM11.9999 0H1.41895L3.34495 21.601L11.9869 24L11.9999 23.996V19.414L11.9879 19.418L6.56095 17.911L6.18995 13.751H8.84895L9.03795 15.864L11.9879 16.661L11.9909 16.66L11.9999 16.658V12.427H6.07095L5.41995 5.127L5.35695 4.415H11.9909H11.9999V0Z" fill="white"/>
<path d="M8.84942 13.751H6.19042L6.56142 17.911L11.9884 19.418L12.0004 19.414L11.9914 19.416V16.66L11.9884 16.661L9.03842 15.864L8.84942 13.751ZM11.9914 4.41498H5.35742L5.42042 5.12598L6.07142 12.426H12.0004H11.9914V9.77798H8.49542L8.25242 7.06498H12.0004H11.9914V4.41498Z" fill="black"/>
<path d="M12.0002 16.658L11.9912 16.66V19.416L12.0002 19.414V16.658ZM12.0002 9.77798H11.9912V12.427H12.0002V9.77798ZM12.0002 4.41498H11.9912V7.06498H12.0002V4.41498Z" fill="#DEDEDE"/>
</svg>
