<svg width="288" height="288" viewBox="0 0 288 288" fill="none" xmlns="http://www.w3.org/2000/svg">
<g clip-path="url(#clip0_370_171)">
<g clip-path="url(#clip1_370_171)">
<path d="M0 0H288V288H0V0Z" fill="white"/>
<path d="M75.7257 240.674L97.7645 227.335C102.017 234.874 105.885 241.253 115.163 241.253C124.056 241.253 129.664 237.774 129.664 224.243V132.22H156.728V224.625C156.728 252.657 140.296 265.417 116.322 265.417C94.6719 265.417 82.1045 254.204 75.7246 240.671M171.428 237.773L193.465 225.015C199.266 234.488 206.806 241.447 220.144 241.447C231.359 241.447 238.51 235.84 238.51 228.107C238.51 218.828 231.164 215.541 218.791 210.13L212.026 207.227C192.5 198.917 179.547 188.477 179.547 166.438C179.547 146.139 195.013 130.672 219.179 130.672C236.385 130.672 248.757 136.666 257.649 152.325L236.576 165.859C231.935 157.546 226.911 154.26 219.178 154.26C211.251 154.26 206.225 159.286 206.225 165.859C206.225 173.978 211.251 177.266 222.85 182.293L229.616 185.192C252.622 195.053 265.574 205.104 265.574 227.721C265.574 252.082 246.435 265.42 220.724 265.42C195.592 265.42 179.353 253.434 171.427 237.774" fill="black"/>
</g>
</g>
<defs>
<clipPath id="clip0_370_171">
<rect width="288" height="288" fill="white"/>
</clipPath>
<clipPath id="clip1_370_171">
<rect width="288" height="288" fill="white"/>
</clipPath>
</defs>
</svg>
