<svg width="150" height="135" viewBox="0 0 150 135" fill="none" xmlns="http://www.w3.org/2000/svg">
<path d="M148.214 128.819V51.6642C148.214 23.7861 125.674 1.23639 97.9023 1.23639H52.0985C24.2845 1.19376 1.74414 23.7861 1.74414 51.6642C1.74414 79.5424 24.2845 102.135 52.0985 102.135H101.645C101.645 102.135 105.685 102.39 108.109 103.243C110.448 104.096 113 106.142 113 106.142L143.621 131.42C143.621 131.42 146.385 133.807 147.406 133.338C148.427 132.784 148.214 128.819 148.214 128.819ZM53.502 61.9374C53.502 65.3049 50.5675 68.033 46.9525 68.033C43.3376 68.033 40.4031 65.3049 40.4031 61.9374V40.2828C40.4031 36.9153 43.3376 34.1871 46.9525 34.1871C50.5675 34.1871 53.502 36.9153 53.502 40.2828V61.9374ZM81.5287 72.1679C81.5287 75.5354 78.5941 78.2635 74.9792 78.2635C71.3642 78.2635 68.4297 75.5354 68.4297 72.1679V30.0523C68.4297 26.6848 71.3642 23.9566 74.9792 23.9566C78.5941 23.9566 81.5287 26.6848 81.5287 30.0523V72.1679ZM109.555 61.9374C109.555 65.3049 106.621 68.033 103.006 68.033C99.3909 68.033 96.4564 65.3049 96.4564 61.9374V40.2828C96.4564 36.9153 99.3909 34.1871 103.006 34.1871C106.621 34.1871 109.555 36.9153 109.555 40.2828V61.9374Z" fill="white"/>
</svg>
