<svg width="59" height="55" viewBox="0 0 59 55" fill="none" xmlns="http://www.w3.org/2000/svg">
<g clip-path="url(#clip0_371_126)">
<mask id="mask0_371_126" style="mask-type:luminance" maskUnits="userSpaceOnUse" x="0" y="0" width="59" height="55">
<path d="M58.5037 0H0V55H58.5037V0Z" fill="white"/>
</mask>
<g mask="url(#mask0_371_126)">
<path d="M52.7337 30.1455C52.0627 30.118 51.3862 30.1455 50.7097 30.1455C47.9597 30.1455 47.9597 30.1455 48.0202 27.3515C48.1377 24.1203 47.5558 20.9018 46.3141 17.9164C45.0725 14.9309 43.2005 12.2489 40.8262 10.054V10.0265L40.3312 9.5865C37.8582 7.4173 34.9397 5.81658 31.7812 4.89708C28.6227 3.97758 25.301 3.76165 22.0501 4.2645C18.7992 4.76735 15.698 5.97674 12.9649 7.80754C10.2318 9.6383 7.93333 12.046 6.23123 14.861L6.19273 14.9215C6.07723 15.1195 5.95623 15.3175 5.84623 15.5155C3.65583 19.3892 2.66973 23.8278 3.01373 28.2645C3.05773 29.0015 3.56373 30.0905 2.06773 30.195C0.775229 30.283 -0.192772 30.9265 0.0327278 32.395C0.258228 33.8635 1.38573 34.045 2.64523 34.045C4.59773 34.0065 6.55573 34.045 8.50823 34.045C9.76223 34.045 10.6642 34.551 10.7082 35.8765C10.7467 37.0755 9.98223 37.741 8.79973 37.7575C7.33123 37.7575 6.37423 38.434 6.48973 39.9135C6.60523 41.393 7.81523 41.5635 9.06373 41.5305C12.5672 41.503 16.0707 41.4975 19.5797 41.5305C20.8722 41.5305 21.8292 42.0805 21.7522 43.582C21.6807 44.9515 20.7952 45.386 19.5522 45.3805C17.3962 45.3805 15.2402 45.3805 13.0787 45.3805C11.7092 45.3805 10.3672 45.452 10.3617 47.2505C10.3562 49.049 11.7147 49.1095 13.0787 49.104C20.3607 49.104 27.6427 49.104 34.9192 49.104C38.0872 49.104 41.2552 49.104 44.4232 49.104C45.7102 49.104 46.7772 48.8675 46.8157 47.333C46.8597 45.683 45.7157 45.353 44.3737 45.386C43.8237 45.386 43.2737 45.386 42.7567 45.386H33.0492C31.7787 45.386 30.9372 44.836 30.8987 43.516C30.8602 42.196 31.7347 41.624 32.9667 41.536C33.3682 41.503 33.7752 41.536 34.1767 41.536C35.4087 41.536 36.5582 41.3985 36.6572 39.842C36.7672 38.192 35.6672 37.8015 34.3032 37.796C33.0602 37.73 32.3397 37.004 32.3397 35.904C32.3397 34.6555 33.1592 33.979 34.4737 34.0175C35.2822 34.0175 36.0962 34.0175 36.9047 34.0175C42.1627 34.0175 47.4207 34.0175 52.6787 34.0175C54.0042 34.0175 54.9557 33.5995 54.9997 32.12C55.0437 30.6405 53.9987 30.2005 52.7337 30.1455Z" fill="white"/>
<path d="M51.95 41.4915C52.9741 41.4915 53.8043 40.6613 53.8043 39.6372C53.8043 38.613 52.9741 37.7828 51.95 37.7828C50.9259 37.7828 50.0957 38.613 50.0957 39.6372C50.0957 40.6613 50.9259 41.4915 51.95 41.4915Z" fill="white"/>
<path d="M56.6258 41.4915C57.6499 41.4915 58.4801 40.6613 58.4801 39.6372C58.4801 38.613 57.6499 37.7828 56.6258 37.7828C55.6017 37.7828 54.7715 38.613 54.7715 39.6372C54.7715 40.6613 55.6017 41.4915 56.6258 41.4915Z" fill="white"/>
<path d="M56.742 37.7828H51.7607V41.4915H56.742V37.7828Z" fill="white"/>
<path d="M41.0242 41.4915C42.0484 41.4915 42.8786 40.6613 42.8786 39.6372C42.8786 38.613 42.0484 37.7828 41.0242 37.7828C40.0001 37.7828 39.1699 38.613 39.1699 39.6372C39.1699 40.6613 40.0001 41.4915 41.0242 41.4915Z" fill="white"/>
<path d="M45.7 41.4915C46.7241 41.4915 47.5543 40.6613 47.5543 39.6372C47.5543 38.613 46.7241 37.7828 45.7 37.7828C44.6759 37.7828 43.8457 38.613 43.8457 39.6372C43.8457 40.6613 44.6759 41.4915 45.7 41.4915Z" fill="white"/>
<path d="M45.8162 37.7828H40.835V41.4915H45.8162V37.7828Z" fill="white"/>
</g>
</g>
<defs>
<clipPath id="clip0_371_126">
<rect width="58.5" height="55" fill="white"/>
</clipPath>
</defs>
</svg>
