<svg width="64" height="64" viewBox="0 0 64 64" fill="none" xmlns="http://www.w3.org/2000/svg">
<path d="M56.085 26.341C57.157 24.41 57.721 22.248 57.721 20.031C57.721 17.762 57.118 15.518 55.976 13.541C52.568 7.642 45.198 5.428 39.149 8.303C38.604 7.396 37.951 6.558 37.197 5.804C34.745 3.351 31.478 2 28 2C21.19 2 15.591 7.274 15.054 13.968C10.507 14.051 6.29697 16.52 4.02497 20.459C0.61197 26.36 2.38697 33.854 7.91597 37.659C6.84297 39.59 6.27997 41.752 6.27997 43.97C6.27997 46.239 6.88297 48.483 8.02497 50.46C10.431 54.626 14.815 56.96 19.313 56.96C21.185 56.96 23.078 56.552 24.856 55.707C25.4 56.611 26.052 57.446 26.803 58.198C29.255 60.649 32.522 62 36 62C42.81 62 48.409 56.726 48.946 50.032C53.493 49.949 57.703 47.48 59.975 43.541C63.389 37.64 61.614 30.146 56.085 26.341ZM54.244 14.54C55.21 16.214 55.721 18.112 55.721 20.03C55.721 21.875 55.257 23.674 54.379 25.287L40.5 17.273C40.191 17.095 39.81 17.095 39.501 17.273L24.988 25.632L25 18.718L39.192 10.523C39.208 10.515 39.224 10.506 39.239 10.498C44.481 7.481 51.215 9.295 54.244 14.54ZM39.016 36.059L31.991 40.105L24.972 36.04L24.985 27.942L32.01 23.896L39.029 27.961L39.016 36.059ZM17 14.982C17.009 8.927 21.943 4 28 4C30.944 4 33.708 5.143 35.783 7.217C36.4 7.834 36.936 8.517 37.387 9.255L23.5 17.273C23.191 17.452 23 17.781 23 18.138L22.973 34.882L17 31.424V14.982ZM5.75597 21.46C7.66297 18.152 11.187 16.081 15 15.979V32C15 32.356 15.19 32.687 15.499 32.865L29.99 41.256L24 44.706L9.84897 36.534C9.82397 36.516 9.79797 36.5 9.77097 36.484C4.52397 33.444 2.72197 26.705 5.75597 21.46ZM9.75597 49.46C8.78997 47.786 8.27897 45.888 8.27897 43.97C8.27897 42.125 8.74297 40.326 9.62097 38.713L23.5 46.727C23.655 46.816 23.827 46.861 24 46.861C24.172 46.861 24.345 46.816 24.499 46.727L39.012 38.368L39 45.282L24.808 53.477C24.792 53.485 24.776 53.494 24.761 53.502C19.519 56.518 12.786 54.704 9.75597 49.46ZM47 49.018C46.991 55.073 42.057 60 36 60C33.056 60 30.292 58.857 28.217 56.783C27.6 56.166 27.064 55.483 26.613 54.745L40.5 46.727C40.809 46.548 41 46.219 41 45.862L41.027 29.118L47 32.576V49.018ZM58.244 42.54C56.337 45.848 52.813 47.919 49 48.021V32C49 31.644 48.81 31.313 48.501 31.135L34.01 22.743L40 19.294L54.151 27.466C54.176 27.484 54.202 27.5 54.229 27.516C59.476 30.556 61.278 37.295 58.244 42.54Z" fill="white"/>
</svg>
