<svg width="288" height="288" viewBox="0 0 288 288" fill="none" xmlns="http://www.w3.org/2000/svg">
<g clip-path="url(#clip0_370_128)">
<path d="M142.78 0.0810547C69.8445 0.0810547 74.3985 31.7104 74.3985 31.7104L74.4795 64.4794H144.081V74.3176H46.8348C46.8348 74.3176 0.163086 69.0244 0.163086 142.616C0.163086 216.21 40.8993 213.6 40.8993 213.6H65.2106V179.45C65.2106 179.45 63.9 138.714 105.297 138.714H174.329C174.329 138.714 213.113 139.34 213.113 101.23V38.2163C213.113 38.2163 219.004 0.0810547 142.78 0.0810547ZM104.402 22.1176C106.047 22.1161 107.676 22.4389 109.196 23.0677C110.715 23.6964 112.096 24.6186 113.259 25.7816C114.422 26.9446 115.345 28.3256 115.973 29.8454C116.602 31.3652 116.925 32.9941 116.923 34.6388C116.925 36.2835 116.602 37.9124 115.973 39.4322C115.345 40.952 114.422 42.333 113.259 43.496C112.096 44.659 110.715 45.5812 109.196 46.2099C107.676 46.8387 106.047 47.1615 104.402 47.1601C102.757 47.1615 101.129 46.8387 99.6088 46.2099C98.089 45.5812 96.7081 44.659 95.5451 43.496C94.3821 42.333 93.4598 40.952 92.8311 39.4322C92.2023 37.9124 91.8795 36.2835 91.881 34.6388C91.8795 32.9941 92.2023 31.3652 92.8311 29.8454C93.4598 28.3256 94.3821 26.9446 95.5451 25.7816C96.7081 24.6186 98.089 23.6964 99.6088 23.0677C101.129 22.4389 102.757 22.1161 104.402 22.1176Z" fill="url(#paint0_linear_370_128)"/>
<path d="M144.852 285.892C217.788 285.892 213.233 254.262 213.233 254.262L213.152 221.495H143.55V211.656H240.796C240.796 211.656 287.468 216.95 287.468 143.355C287.468 69.7624 246.731 72.3724 246.731 72.3724H222.42V106.522C222.42 106.522 223.731 147.258 182.334 147.258H113.302C113.302 147.258 74.5176 146.631 74.5176 184.743V247.758C74.5176 247.758 68.6282 285.892 144.85 285.892H144.852ZM183.23 263.858C181.585 263.859 179.956 263.536 178.436 262.907C176.917 262.279 175.536 261.356 174.373 260.193C173.21 259.03 172.287 257.65 171.659 256.13C171.03 254.61 170.707 252.981 170.708 251.336C170.707 249.691 171.03 248.062 171.658 246.542C172.287 245.023 173.209 243.642 174.372 242.478C175.535 241.315 176.916 240.393 178.436 239.764C179.956 239.135 181.585 238.812 183.23 238.814C184.874 238.812 186.503 239.135 188.023 239.764C189.543 240.393 190.924 241.315 192.087 242.478C193.25 243.641 194.172 245.022 194.801 246.542C195.43 248.062 195.752 249.69 195.751 251.335C195.752 252.98 195.43 254.609 194.801 256.129C194.172 257.648 193.25 259.029 192.087 260.192C190.924 261.355 189.543 262.278 188.023 262.906C186.503 263.535 184.874 263.859 183.23 263.858Z" fill="url(#paint1_linear_370_128)"/>
</g>
<defs>
<linearGradient id="paint0_linear_370_128" x1="2761.15" y1="2570.78" x2="16999.1" y2="16666.7" gradientUnits="userSpaceOnUse">
<stop stop-color="white"/>
<stop offset="1" stop-color="white"/>
</linearGradient>
<linearGradient id="paint1_linear_370_128" x1="4149.74" y1="4466.61" x2="19439.7" y2="18920.7" gradientUnits="userSpaceOnUse">
<stop stop-color="white"/>
<stop offset="1" stop-color="white"/>
</linearGradient>
<clipPath id="clip0_370_128">
<rect width="288" height="288" fill="white"/>
</clipPath>
</defs>
</svg>
