<svg width="24" height="24" viewBox="0 0 24 24" fill="none" xmlns="http://www.w3.org/2000/svg">
<path d="M11.9995 14.1461C13.1853 14.1461 14.1465 13.1848 14.1465 11.9991C14.1465 10.8133 13.1853 9.85205 11.9995 9.85205C10.8138 9.85205 9.85254 10.8133 9.85254 11.9991C9.85254 13.1848 10.8138 14.1461 11.9995 14.1461Z" fill="white"/>
<path d="M4.514 15.8009C4.725 15.8709 4.936 15.9419 5.152 16.0029C5.082 16.2839 5.021 16.5609 4.964 16.8469C4.472 19.4489 4.856 21.5109 6.084 22.2189C7.35 22.9499 9.478 22.1999 11.55 20.3859C11.714 20.2409 11.878 20.0909 12.042 19.9309C12.248 20.1329 12.464 20.3249 12.679 20.5119C14.685 22.2369 16.668 22.9349 17.892 22.2279C19.158 21.4969 19.57 19.2799 19.036 16.5799C18.9927 16.3681 18.9457 16.1571 18.895 15.9469C19.045 15.9049 19.19 15.8579 19.336 15.8109C22.041 14.9159 24 13.4669 24 11.9809C24 10.5609 22.153 9.18294 19.603 8.30594C19.3513 8.22219 19.0983 8.14151 18.844 8.06594C18.886 7.89294 18.924 7.71894 18.961 7.54594C19.538 4.75194 19.158 2.50794 17.878 1.76694C16.645 1.05894 14.634 1.79494 12.6 3.56694C12.398 3.73994 12.202 3.92294 12.014 4.10594C11.8865 3.98328 11.7568 3.86293 11.625 3.74494C9.492 1.85094 7.355 1.05394 6.075 1.79994C4.847 2.51294 4.481 4.62694 4.997 7.26894C5.049 7.53194 5.105 7.78894 5.17 8.05194C4.87 8.13594 4.575 8.22994 4.298 8.32894C1.795 9.19594 0 10.5649 0 11.9809C0 13.4439 1.912 14.9099 4.514 15.8009ZM10.889 19.6199C10.1161 20.3284 9.22 20.8894 8.245 21.2749C7.725 21.5229 7.125 21.5469 6.59 21.3359C5.845 20.9049 5.535 19.2499 5.957 17.0229C6.009 16.7609 6.065 16.4979 6.13 16.2399C7.18 16.4649 8.239 16.6199 9.313 16.6989C9.93263 17.5766 10.6091 18.4127 11.338 19.2019C11.188 19.3469 11.038 19.4879 10.888 19.6189L10.889 19.6199ZM16.842 10.8179C16.6232 10.4043 16.3965 9.99489 16.162 9.58994C15.932 9.19194 15.693 8.79794 15.445 8.40894C16.2 8.50294 16.922 8.62894 17.597 8.78394C17.381 9.47465 17.129 10.1536 16.842 10.8179ZM16.851 13.1519C17.151 13.8319 17.414 14.5209 17.643 15.2289C16.916 15.3929 16.181 15.5199 15.44 15.6039C15.9455 14.8073 16.4162 13.9892 16.851 13.1519ZM16.309 11.9859C15.6799 13.2802 14.9629 14.5298 14.163 15.7259C13.465 15.7779 12.738 15.8009 12.002 15.8009C11.266 15.8009 10.554 15.7779 9.865 15.7349C9.05143 14.5477 8.32902 13.3004 7.704 12.0039H7.702C8.32192 10.7092 9.03967 9.46357 9.849 8.27794C11.2817 8.17189 12.7203 8.17189 14.153 8.27794C14.551 8.86894 14.931 9.47294 15.292 10.0919C15.652 10.7118 15.9912 11.3435 16.309 11.9859ZM7.832 9.59894C7.602 9.99694 7.377 10.4039 7.166 10.8169C6.8829 10.1486 6.6326 9.46674 6.416 8.77394C7.091 8.62394 7.808 8.50194 8.553 8.40794C8.306 8.79694 8.062 9.19494 7.832 9.59894ZM7.167 13.1889C7.383 13.6019 7.603 14.0099 7.837 14.4129C8.076 14.8209 8.32 15.2289 8.578 15.6269C7.8474 15.5473 7.12142 15.4298 6.403 15.2749C6.609 14.5999 6.867 13.9019 7.167 13.1889ZM12.038 18.4799C11.5362 17.9373 11.0623 17.3696 10.618 16.7789C11.5536 16.8172 12.4905 16.8156 13.426 16.7739C12.9951 17.3677 12.5317 17.9372 12.038 18.4799ZM18.165 19.8879C18.143 20.1722 18.063 20.449 17.9299 20.7011C17.7968 20.9533 17.6134 21.1755 17.391 21.3539C16.646 21.7849 15.057 21.2229 13.341 19.7509C13.1391 19.5752 12.9407 19.3955 12.746 19.2119C13.4623 18.4211 14.1232 17.5817 14.724 16.6999C15.7998 16.6108 16.8681 16.4464 17.921 16.2079C17.968 16.3999 18.01 16.5919 18.048 16.7799C18.2769 17.8 18.3166 18.8535 18.165 19.8879ZM18.572 9.03194C18.816 9.10194 19.05 9.17694 19.275 9.25194C21.459 10.0019 22.992 11.1179 22.992 11.9709C22.992 12.8899 21.356 14.0759 19.017 14.8489C18.886 14.8909 18.755 14.9329 18.619 14.9709C18.2885 13.9481 17.8893 12.9489 17.424 11.9799C17.874 11.0239 18.254 10.0389 18.572 9.03194ZM13.26 4.32594C15.005 2.80794 16.631 2.21294 17.372 2.63894C18.164 3.09394 18.469 4.93094 17.972 7.34494C17.9407 7.50233 17.9047 7.65873 17.864 7.81394C16.8245 7.5787 15.7705 7.41266 14.709 7.31694C14.1004 6.44271 13.4332 5.6108 12.712 4.82694C12.895 4.65394 13.073 4.48994 13.26 4.32594ZM12.01 5.54494C12.502 6.07894 12.966 6.64094 13.397 7.22194C12.4678 7.17994 11.5372 7.17994 10.608 7.22194C11.067 6.61794 11.541 6.05594 12.01 5.54494ZM6.572 2.67194C7.36 2.21294 9.108 2.86894 10.95 4.49994C11.067 4.60294 11.184 4.71594 11.306 4.82794C10.5803 5.61092 9.90839 6.44216 9.295 7.31594C8.23559 7.41067 7.18341 7.57368 6.145 7.80394C6.084 7.56494 6.033 7.32094 5.981 7.07694C5.54 4.80794 5.831 3.09794 6.572 2.67194ZM4.627 9.27994C4.894 9.18594 5.166 9.10194 5.438 9.02194C5.75669 10.0391 6.14014 11.0348 6.586 12.0029C6.136 12.9829 5.747 13.9949 5.424 15.0259L5.423 15.0269C5.22771 14.9712 5.03397 14.9102 4.842 14.8439C3.844 14.5299 2.709 14.0329 1.889 13.3819C1.65492 13.22 1.45614 13.0123 1.30471 12.7713C1.15327 12.5303 1.05233 12.2611 1.008 11.9799C1.008 11.1219 2.489 10.0249 4.627 9.27994Z" fill="white"/>
</svg>
